# xmcd CD database file
#
# Track frame offsets:
#	150
#	24520
#	44590
#	55300
#	75995
#	96905
#	126850
#	149990
#	173590
#	209670
#
# Disc length: 3050 seconds
#
# Revision: 1
# Processed by: cddbd v1.5.1PL0 Copyright (c) Steve Scherf et al.
# Submitted via: CDex 1.51
#
DISCID=910be80a
DTITLE=Son 14 - Son como son
DYEAR=1999
DGENRE=Salsa
TTITLE0=La soledad es mala consejera
TTITLE1=Ay papacito
TTITLE2=sobre un tema triste
TTITLE3=Sera porque soy candela
TTITLE4=Agua que cae del cielo
TTITLE5=Tati, una cancion para ti
TTITLE6=Si yo siempre he sido el son
TTITLE7=Eso me conviene
TTITLE8=Cuestiones de amor
TTITLE9=Luces de mi santiago
EXTD=YEAR: 1999
EXTT0=
EXTT1=
EXTT2=
EXTT3=
EXTT4=
EXTT5=
EXTT6=
EXTT7=
EXTT8=
EXTT9=
PLAYORDER=
